<svg version="1.2" xmlns="http://www.w3.org/2000/svg" viewBox="0 0 1376 416" width="1376" height="416">
	<title>bet-flapy-dark-ai</title>
	<defs>
		<linearGradient id="g1" x1="100.2" y1="112.3" x2="147.7" y2="375.3" gradientUnits="userSpaceOnUse">
			<stop offset="0" stop-color="#22a53e"/>
			<stop offset="1" stop-color="#0db5a0"/>
		</linearGradient>
		<linearGradient id="g2" x1="106.9" y1="262.1" x2="114.5" y2="350.9" gradientUnits="userSpaceOnUse">
			<stop offset="0" stop-color="#22a53e"/>
			<stop offset="1" stop-color="#0db5a0"/>
		</linearGradient>
		<linearGradient id="g3" x1="715.8" y1="103.3" x2="715.8" y2="208.6" gradientUnits="userSpaceOnUse">
			<stop offset="0" stop-color="#ffb800"/>
			<stop offset="1" stop-color="#ff7a1a"/>
		</linearGradient>
		<linearGradient id="g4" x1="797.1" y1="103.3" x2="797.1" y2="208.6" gradientUnits="userSpaceOnUse">
			<stop offset="0" stop-color="#ffb800"/>
			<stop offset="1" stop-color="#ff7a1a"/>
		</linearGradient>
		<linearGradient id="g5" x1="920.8" y1="208.6" x2="920.8" y2="103.3" gradientUnits="userSpaceOnUse">
			<stop offset="0" stop-color="#ffb800"/>
			<stop offset="1" stop-color="#ff7a1a"/>
		</linearGradient>
		<linearGradient id="g6" x1="1013.1" y1="208.6" x2="1013.1" y2="103.3" gradientUnits="userSpaceOnUse">
			<stop offset="0" stop-color="#ffb800"/>
			<stop offset="1" stop-color="#ff7a1a"/>
		</linearGradient>
		<linearGradient id="g7" x1="1111.2" y1="208.6" x2="1111.2" y2="103.3" gradientUnits="userSpaceOnUse">
			<stop offset="0" stop-color="#ffb800"/>
			<stop offset="1" stop-color="#ff7a1a"/>
		</linearGradient>
		<linearGradient id="g8" x1="1214.3" y1="103.3" x2="1214.3" y2="208.6" gradientUnits="userSpaceOnUse">
			<stop offset="0" stop-color="#ffb800"/>
			<stop offset="1" stop-color="#ff7a1a"/>
		</linearGradient>
	</defs>
	<style>
		.s0 { fill: url(#g1) } 
		.s1 { fill: #21834e } 
		.s2 { fill: url(#g2) } 
		.s3 { fill: #25a45f } 
		.s4 { fill: #22af40 } 
		.s5 { fill: #0fbca6 } 
		.s6 { fill: #1e1e1e } 
		.s7 { fill: #dbe5ff } 
		.s8 { fill: #ffa31a } 
		.s9 { fill: #ff7a1a } 
		.s10 { fill: #ffcd1a } 
		.s11 { fill: url(#g3) } 
		.s12 { fill: url(#g4) } 
		.s13 { fill: url(#g5) } 
		.s14 { fill: url(#g6) } 
		.s15 { fill: url(#g7) } 
		.s16 { fill: url(#g8) } 
		.s17 { fill: #334c57 } 
		.s18 { fill: #ffffff } 
	</style>
	<g id="Layer 1">
		<g id="&lt;Group&gt;">
			<path id="&lt;Path&gt;" class="s0" d="m230.2 303c25.6 38.9 124.2 18.2 119.4 13-4.9-5.2-36.5-20.3-39.5-49.2 42.6 6 92.9-12.6 124.7-93.6 1-2.3-1.5-4.5-3.7-3.3l-10.2 5.6c17.5-20.1 35-56.4 12.9-86.7-2-2.7-6-1.6-6.7 1.7-3.9 18-8.9 26.9-19.7 37.8 1-51.7-4.7-74.6-25.9-96.8-2.4-2.5-6.4-0.9-6.7 2.5-4.4 51.9-7.8 83.1-27.3 129.8 9.1 42.3-0.7 56.9-34.7 72.7 0 0 0.9-29.9 9.2-62.3 8.3-32.4-2.1-65.1-65-62.4-4.6 0.2-35.6 14.5-0.9 14.4 34.6-0.1 35.7 22.5 37.3 34.5 1.6 12-12.8 81.1-55.8 52.5-8.8-5.9-16.8 5-18.8 10.3-1.9 5.3-14.2 40.7 11.4 79.5z"/>
			<path id="&lt;Compound Path&gt;" fill-rule="evenodd" class="s1" d="m340.2 309.1q1.8 1.3 3.4 2.4c2.8 2 5 3.5 6 4.5 4.8 5.2-93.8 25.9-119.4-13 22.4 20.1 61.7 21.4 110 6.1zm-30.1-42.3c-0.8-10.1-0.4-16.6 2.7-30.3 34-15.8 43.8-30.4 34.7-72.7 16.3 39.3 16.3 61.6-37.4 103zm117-176.3c0.6 21.8-11.5 49.3-22.4 66.5-0.5-2.6 1-12.3 1.5-15.8 0.4-3.5 0.7-10.2 1.2-12.9 10.8-10.9 15.8-19.8 19.7-37.8zm4 79.4c-10.7 12.5-17 18.4-28.3 28.7l18.1-23.1z"/>
			<path id="&lt;Path&gt;" class="s2" d="m237.3 330c-31.4-11.3-44.5-29.4-48.9-68.9-0.1-0.7-0.6-1.2-1.3-1.3-45.2-1.2-73.7-9.7-121.7-24.4-5.2-1.6-9.9 3.1-7.8 8.1 13.5 32.3 42.6 48.9 79.1 60.5-16.6 3.6-27 4.9-45 3.7-2.3-0.1-3.8 2.4-2.4 4.3 21.7 30.7 42.5 32.6 85 21.1-3.7 4-6.8 6.4-11.1 9.9h-0.1c-0.9 0.8-0.5 2.3 0.7 2.4 26.8 2.8 48.3-0.8 73.6-10.2 2.4-0.9 2.3-4.4-0.1-5.2z"/>
			<path id="&lt;Compound Path&gt;" fill-rule="evenodd" class="s3" d="m164.7 341.8c6.8-3.4 10.5-5.4 16.9-11l-7.3 2.3c-3.3 3.5-6 5.8-9.6 8.7zm-72.7-34c18.4 3.5 28.9 5.5 57.8-0.4l-13.1-3.4c-16.6 3.6-27 4.9-45 3.7z"/>
			<path id="&lt;Path&gt;" class="s4" d="m317.9 95.7c-0.7 9.2-5.7 17.9-10.9 17.5-5.3-0.4-13.9-20.2-13.2-29.4 0.6-9.2 9.8-6.9 15.1-6.5 5.3 0.4 9.7 9.2 9 18.4z"/>
			<path id="&lt;Path&gt;" class="s4" d="m341 108.9c2.5 3.8 0.7 9.7-3.5 12.5-4.2 2.8-9.8 4.5-12.3 0.7-2.4-3.9-0.1-10.3 4.1-13.1 4.2-2.8 9.2-3.9 11.7-0.1z"/>
			<path id="&lt;Path&gt;" class="s5" d="m388.4 323.3c-1.6 4-7.7 6.5-13.3 1.5-5.5-5.1-14.9-6.3-13.5-9.2 1.5-2.9 15.1-7.4 20.9-4.5 5.9 3 7.6 8.2 5.9 12.2z"/>
			<path id="&lt;Path&gt;" class="s5" d="m366 356.1c-6.4 3.3-12.2-4-12.6-10-0.5-6-6.5-13.9-2.5-15.1 4-1.2 14.9 4.4 17.8 10.7 2.9 6.2 3.7 11-2.7 14.4z"/>
			<path id="&lt;Path&gt;" class="s5" d="m327.7 362.4c-4.2-1.2-7.4-7-3-13.2 4.3-6.1 2.6-15.9 5.6-14.8 3.1 1.1 11.2 12.9 9 19.1-2.2 6.2-7.5 10.1-11.6 8.9z"/>
			<path id="&lt;Path&gt;" class="s6" d="m268.5 154.6c5.8 9.1 3.4 21.2-5.6 27.1-8.9 6-21 3.5-26.8-5.6-5.9-9-3.5-21.1 5.5-27.1 8.9-5.9 21-3.4 26.9 5.6z"/>
			<path id="&lt;Path&gt;" class="s7" d="m268.1 154.8c5.8 8.9 3.4 20.8-5.4 26.6-8.8 5.8-20.6 3.4-26.3-5.5-5.8-8.8-3.4-20.7 5.4-26.5 8.8-5.9 20.6-3.4 26.3 5.4z"/>
			<path id="&lt;Path&gt;" class="s6" d="m260.9 161c4 6.1 2.3 14.3-3.7 18.3-6 4-14.2 2.3-18.1-3.8-4-6-2.3-14.2 3.7-18.3 6-4 14.2-2.3 18.1 3.8z"/>
			<path id="&lt;Path&gt;" class="s8" d="m60.5 203.9c48.5-17.4 85.6-20.6 116.9-2.1 31.3 18.5 77.4-59.5 13.7-84.7-63.7-25.2-179 104.1-130.6 86.8z"/>
			<path id="&lt;Path&gt;" class="s9" d="m60.5 203.9c48.5-17.4 85.6-20.6 116.9-2.1 21.3 12.6 49.4-19.4 45.2-49.2-5.3 14.9-29.4 39.6-42.8 28.5-24.7-20.4-89-3.2-127.9 24.3 1.9 0.3 4.8-0.1 8.6-1.5z"/>
			<path id="&lt;Path&gt;" class="s10" d="m199 141.6c-4 8.7-23.1-6.2-48.3-1.8-25.2 4.5-50 20.6-50.2 16.8-0.2-3.8 33.1-27 58.3-31.5 25.2-4.4 44.3 7.9 40.2 16.5z"/>
		</g>
		<path id="&lt;Path&gt;" class="s11" d="m757.3 208.6v-105.3h71.7v21.2h-42.5v23.8h33.2v20.7h-33.2v39.6z"/>
		<path id="&lt;Path&gt;" class="s12" d="m843.3 208.6v-105.3h29.2v84.2h39.6v21.1z"/>
		<path id="&lt;Compound Path&gt;" fill-rule="evenodd" class="s13" d="m922.3 208.6l36.5-105.3h31.2l36.1 105.3h-29.8l-6.9-20.8h-34.2l-6.5 20.8zm49.5-74.7l-11 34.9h22.6l-11-34.9z"/>
		<path id="&lt;Compound Path&gt;" fill-rule="evenodd" class="s14" d="m1036.4 208.6v-105.3h43.3c27.8 0 41.3 12.2 41.3 34.3 0 23.9-14.3 36.1-40.6 36.1h-14.8v34.9zm29.1-53.9h10.7c10.7 0 14.5-5 14.5-15.5 0-11.8-4.4-15.7-13.8-15.7h-11.4z"/>
		<path id="&lt;Compound Path&gt;" fill-rule="evenodd" class="s15" d="m1134.5 208.6v-105.3h43.3c27.7 0 41.2 12.2 41.2 34.3 0 23.9-14.2 36.1-40.5 36.1h-14.9v34.9zm29.2-53.9h10.7c10.7 0 14.5-5 14.5-15.5 0-11.8-4.4-15.7-13.9-15.7h-11.3z"/>
		<path id="&lt;Path&gt;" class="s16" d="m1258.3 208.6v-41.2l-33.1-64.1h30.9l18.6 38.4h0.5l18.3-38.4h26.7l-32.7 64.1v41.2z"/>
		<g id="&lt;Group&gt;">
			<path id="&lt;Compound Path&gt;" fill-rule="evenodd" class="s17" d="m527 103.6c17.6 0 36.5 6.8 36.5 27.7 0 9.6-4.3 17.1-12.7 21.9 11.1 4.1 17.1 13.6 17.1 25.2 0 22.2-20.8 30.2-40.2 30.2h-42.4v-105zm-2.7 41.3c6.2 0 11.1-2.7 11.1-9.5 0-7-4.7-9.6-11.1-9.6h-11.7v19.1zm3 41.5c7.1 0 12.4-2.9 12.4-10.6q0-5.1-3.1-8-3.3-2.7-9.3-2.7h-14.7v21.3z"/>
			<path id="&lt;Compound Path&gt;" class="s17" d="m649 103.6v24.3h-41.9v15.2h36.7v24.1h-36.7v17.3h43.5v24.1h-71.6v-105z"/>
			<path id="&lt;Compound Path&gt;" class="s17" d="m660.2 103.6h84.9v26h-27.6v79h-29.6v-79h-27.7z"/>
		</g>
		<g id="&lt;Group&gt;">
			<path id="&lt;Path&gt;" class="s18" d="m286.5 311.6l-13.5 3.7-6 18.6 8.4 11.9 15.6-5.5c3-5.3 4.9-11.1 5.4-17.3z"/>
			<path id="&lt;Path&gt;" class="s18" d="m255.9 299.7l15.9 11.5 13.3-3.6v-17.4c-3.8-4.2-8.6-7.6-13.8-10l-15.4 5.5z"/>
			<path id="&lt;Path&gt;" class="s18" d="m271.4 278z"/>
			<path id="&lt;Path&gt;" class="s18" d="m262.5 361.1l9.5-12.8-8.4-12h-19.6l-8.4 12 9.5 12.8c5.7 1.2 11.7 1.2 17.4 0z"/>
			<path id="&lt;Path&gt;" class="s18" d="m236.2 278z"/>
			<path id="&lt;Path&gt;" class="s18" d="m251.7 299.7v-14l-15.4-5.5c-5.2 2.4-10 5.8-13.9 10v17.4l13.4 3.6z"/>
			<path id="&lt;Path&gt;" class="s18" d="m220.3 289.4z"/>
			<path id="&lt;Path&gt;" class="s18" d="m232.2 345.8l8.4-11.9-6.1-18.6-13.4-3.7-9.9 11.4c0.5 6.1 2.4 12 5.4 17.3z"/>
			<path id="&lt;Compound Path&gt;" fill-rule="evenodd" class="s17" d="m300.8 319.2q0 1.7-0.2 3.3c-0.4 7.3-2.6 14.3-6.4 20.6-6.5 11.1-17.5 19.1-30.1 22-3.3 0.7-6.8 1.1-10.3 1.1-3.5 0-7-0.4-10.3-1.1-12.6-2.8-23.6-10.8-30.2-22-3.7-6.2-5.9-13.4-6.4-20.6q-0.1-1.6-0.1-3.3c0-11.5 4.3-22.6 12-31.2l1.5 1.4-1.5-1.4c4.5-5.2 10.3-9.3 16.6-12l0.8 2-0.8-2c5.8-2.5 12-3.7 18.4-3.7 6.4 0 12.6 1.2 18.4 3.7l-0.8 2 0.8-2c6.3 2.7 12 6.8 16.6 12 7.7 8.6 12 19.7 12 31.2zm-78.4-11.6l13.4 3.6 15.9-11.5v-14l-15.4-5.5c-5.2 2.4-10 5.8-13.9 10zm48.9-27.4l-15.4 5.5v13.9l15.9 11.6 13.3-3.6v-17.4c-3.8-4.2-8.6-7.7-13.8-10zm-60.1 42.8c0.5 6.1 2.4 12 5.4 17.3l15.6 5.5 8.4-11.9-6.1-18.7-13.4-3.6zm85.1 0l-9.8-11.5-13.5 3.7-6 18.6 8.3 12 15.6-5.5c3.1-5.4 4.9-11.2 5.4-17.3zm-33.9 38.1l9.6-12.9-8.5-11.9h-19.5l-8.4 11.9 9.5 12.9c5.7 1.1 11.7 1.1 17.3 0z"/>
		</g>
		<g id="&lt;Group&gt;">
			<path id="&lt;Path&gt;" class="s18" d="m-341-54.6l-13.4 3.6-6.1 18.7 8.4 11.9 15.6-5.5c3.1-5.3 4.9-11.2 5.4-17.3z"/>
			<path id="&lt;Path&gt;" class="s18" d="m-371.6-66.5l15.9 11.5 13.4-3.6v-17.4c-3.9-4.2-8.7-7.6-13.9-10l-15.4 5.5z"/>
			<path id="&lt;Path&gt;" class="s18" d="m-356.1-88.2z"/>
			<path id="&lt;Path&gt;" class="s18" d="m-365-5.1l9.5-12.8-8.4-12h-19.6l-8.4 12 9.5 12.8c5.7 1.2 11.7 1.2 17.4 0z"/>
			<path id="&lt;Path&gt;" class="s18" d="m-391.3-88.2z"/>
			<path id="&lt;Path&gt;" class="s18" d="m-375.8-66.5v-14l-15.4-5.5c-5.2 2.4-10 5.8-13.8 10v17.4l13.3 3.6z"/>
			<path id="&lt;Path&gt;" class="s18" d="m-407.1-76.9z"/>
			<path id="&lt;Path&gt;" class="s18" d="m-395.3-20.4l8.4-11.9-6-18.7-13.5-3.6-9.9 11.4c0.6 6.1 2.4 12 5.4 17.3z"/>
			<path id="&lt;Compound Path&gt;" fill-rule="evenodd" class="s17" d="m-326.7-47q0 1.7-0.1 3.3c-0.5 7.3-2.7 14.3-6.4 20.6-6.6 11.1-17.6 19.1-30.1 21.9-3.4 0.8-6.9 1.2-10.4 1.2-3.5 0-6.9-0.4-10.3-1.1-12.6-2.9-23.6-10.9-30.1-22-3.7-6.2-6-13.4-6.4-20.6q-0.2-1.6-0.2-3.3c0-11.5 4.3-22.6 12-31.3l1.6 1.4-1.6-1.4c4.6-5.1 10.3-9.2 16.6-11.9l0.8 2v-0.1l-0.8-1.9c5.8-2.5 12-3.7 18.4-3.7 6.4 0 12.6 1.2 18.4 3.7l-0.8 1.9v0.1l0.8-2c6.3 2.7 12.1 6.8 16.6 11.9 7.7 8.7 12 19.8 12 31.3zm-78.3-11.6l13.3 3.6 15.9-11.5v-14l-15.4-5.5c-5.2 2.4-10 5.8-13.8 10zm48.8-27.4l-15.4 5.5v13.9l15.9 11.6 13.4-3.6v-17.5c-3.9-4.1-8.7-7.6-13.9-9.9zm-60.1 42.8c0.6 6 2.4 12 5.4 17.3l15.6 5.5 8.4-11.9-6-18.7-13.5-3.7zm85.2 0.1l-9.9-11.5-13.5 3.7-6 18.6 8.4 11.9 15.6-5.4c3-5.4 4.8-11.2 5.4-17.3zm-33.9 38.1l9.5-12.9-8.4-11.9h-19.6l-8.4 11.9 9.5 12.9c5.7 1.1 11.7 1.1 17.4 0z"/>
		</g>
	</g>
</svg>